<mxfile host="65bd71144e">
    <diagram id="cqPQxQaSlLQkB0x-EhjD" name="第 1 页">
        <mxGraphModel dx="672" dy="297" grid="1" gridSize="10" guides="1" tooltips="1" connect="1" arrows="1" fold="1" page="1" pageScale="1" pageWidth="827" pageHeight="1169" math="0" shadow="0">
            <root>
                <mxCell id="0"/>
                <mxCell id="1" parent="0"/>
                <mxCell id="3" value="" style="verticalLabelPosition=bottom;verticalAlign=top;html=1;shape=mxgraph.basic.orthogonal_triangle;rotation=90;" vertex="1" parent="1">
                    <mxGeometry x="345.01" y="125.61" width="100" height="170" as="geometry"/>
                </mxCell>
            </root>
        </mxGraphModel>
    </diagram>
</mxfile>